<?xml version="1.0" encoding="utf-8"?>
<!-- Generator: Adobe Illustrator 20.1.0, SVG Export Plug-In . SVG Version: 6.00 Build 0)  -->
<svg version="1.1" id="Layer_1" xmlns="http://www.w3.org/2000/svg" xmlns:xlink="http://www.w3.org/1999/xlink" x="0px" y="0px"
	 viewBox="0 0 175 175" style="enable-background:new 0 0 175 175;" xml:space="preserve">
<style type="text/css">
	.st0{fill:none;stroke:#010101;stroke-width:5;stroke-linecap:round;stroke-linejoin:round;stroke-miterlimit:10;}
</style>
<g>
	<path class="st0" d="M50.1,42.7c-5.5,0.6-10.8,3-14.9,7.2l0,0c-15.7,15.7-15.7,41.1,0,56.8l20.7,20.7c0,0,8.3-1.7,7.5-5.9
		c-1.8-9.3-5.9-17.8,1.1-24.7"/>
	<path class="st0" d="M69.3,42l12.3-12.3c6.9-6.9,18-6.9,24.8,0l28.8,28.8c1.7,1.7,2.5,2.2,4.8,1.3l2.7-1c2.9-1.1,6.2,0.4,7.3,3.4
		l0,0c1.1,2.9-0.4,6.2-3.4,7.3l-3.5,1.3"/>
	<path class="st0" d="M70.2,34.2c-7.3,1.4-14.3,4.9-19.9,10.6l-4.6,12.8"/>
	<path class="st0" d="M103,64.8l-2.7-1c-2.9-1.1-6.2,0.4-7.3,3.4v0c-1.1,2.9,0.4,6.2,3.4,7.3l3.5,1.3"/>
	<path class="st0" d="M96.6,75.8"/>
	<path class="st0" d="M100.2,63.7c1.6-2.4,3.7-4.5,6.1-6.2"/>
	<line class="st0" x1="96.6" y1="75.8" x2="92.7" y2="84.1"/>
	<path class="st0" d="M147.7,71.8L147.7,71.8c2.6,5.5,3.9,11.4,3.9,17.4v4.7l-9.3,9.3c-3,3-12.6,4.6-16.8,4.6l-17-8.7"/>
	<line class="st0" x1="99.6" y1="85.9" x2="97.7" y2="89.9"/>
	<polygon class="st0" points="135.1,90.8 128.9,90.8 132,95 	"/>
	<path class="st0" d="M112.2,78.6c0-2,1.5-3.6,3.4-3.6c1.9,0,6.1,9.9,6.1,9.9"/>
	<path class="st0" d="M138.2,76.6c0-1-0.8-1.8-1.7-1.8s-1.4,6.6-1.4,6.6"/>
	<ellipse class="st0" cx="114.5" cy="78.2" rx="1.6" ry="1.7"/>
	<path class="st0" d="M77.5,69.6l-6.4,6.4l6.4,1.7l-7.3,7.3l5.2,2.7c0,0,5,15,0,20c0,0,11.6,15,10,20v12.6h19.8v0
		c0-4.6-3.7-8.3-8.3-8.3h0"/>
	<path class="st0" d="M100.2,132.1c0,0,1.1-23.3,5.1-24.3"/>
	<path class="st0" d="M125.5,107.8l3.1,10.8c0,0-5.3,3.9-9.9,7.9c-3.6,3.1-9,2.9-12.3-0.4l3.7-3.7l5.5-4.6c0,0-15.3-1-12.8-5.5"/>
	<path class="st0" d="M85.4,150.5c-5.5,0-10-4.5-10-10"/>
</g>
</svg>
